<?xml version="1.0" standalone="no"?>
<svg width="600" height="600" viewBox="0 0 600 600" xmlns="http://www.w3.org/2000/svg">
<title>A cross composed of four interlaced triquetras, called a "Carolingian Cross" by Rudolf Koch</title>
<g fill="none" stroke="#000000" transform="translate(9,591)scale(0.582,-0.582)">
<path stroke-width="52.4" d="M233.222,29.5386C252.272,25.3154,271.727,23.1846,291.24,23.1846C439.283,23.1846,559.296,143.198,559.296,291.241C559.296,439.285,439.283,559.298,291.24,559.298C143.197,559.298,23.1833,439.285,23.1833,291.241C23.1833,271.728,25.3142,252.273,29.5374,233.223
M970.462,233.223C974.686,252.273,976.816,271.728,976.816,291.241C976.816,439.285,856.803,559.298,708.76,559.298C560.716,559.298,440.703,439.285,440.703,291.241C440.703,143.198,560.716,23.1846,708.76,23.1846C728.273,23.1846,747.728,25.3154,766.778,29.5386
M766.778,970.464C747.728,974.687,728.273,976.818,708.76,976.818C560.716,976.818,440.703,856.805,440.703,708.761C440.703,560.718,560.716,440.705,708.76,440.705C856.803,440.705,976.816,560.718,976.816,708.761C976.816,728.274,974.686,747.729,970.462,766.779
M29.5374,766.779C25.3142,747.729,23.1833,728.274,23.1833,708.761C23.1833,560.718,143.197,440.705,291.24,440.705C439.283,440.705,559.296,560.718,559.296,708.761C559.296,856.805,439.283,976.818,291.24,976.818C271.727,976.818,252.272,974.687,233.222,970.464
M755.65,10.2644C720.47,121.841,616.992,197.715,500,197.715C383.008,197.715,279.53,121.841,244.35,10.2644
M10.2632,244.351C121.84,279.531,197.714,383.01,197.714,500.001C197.714,616.993,121.84,720.471,10.2632,755.651
M989.737,755.651C878.16,720.471,802.286,616.993,802.286,500.001C802.286,383.01,878.16,279.531,989.737,244.351
M244.35,989.738C279.53,878.161,383.008,802.288,500,802.288C616.992,802.288,720.47,878.161,755.65,989.738"/>
<path stroke-width="13.1" d="M218.038,13.0029C222.473,11.8362,226.936,10.7751,231.422,9.82178
M9.82031,231.424C10.7739,226.938,11.835,222.475,13.0017,218.039
M986.998,218.039C988.165,222.475,989.226,226.938,990.179,231.424
M768.577,9.82178C773.063,10.7751,777.526,11.8362,781.962,13.0029
M781.962,987C777.526,988.166,773.063,989.227,768.577,990.181
M990.179,768.579C989.226,773.065,988.165,777.528,986.998,781.963
M13.0017,781.963C11.835,777.528,10.7739,773.065,9.82031,768.579
M231.422,990.181C226.936,989.227,222.473,988.166,218.038,987
M777.563,5.38135C776.355,9.8064,775.042,14.2021,773.625,18.5645
M226.375,18.5645C224.958,14.2026,223.645,9.80737,222.438,5.38257
M5.38135,222.439C9.80591,223.646,14.2014,224.959,18.5632,226.376
M18.5632,773.626C14.2014,775.044,9.80591,776.357,5.38135,777.564
M994.62,777.564C990.195,776.357,985.799,775.044,981.437,773.626
M981.437,226.376C985.798,224.959,990.194,223.646,994.618,222.439
M222.438,994.62C223.645,990.195,224.958,985.8,226.375,981.438
M773.625,981.438C775.042,985.8,776.355,990.195,777.562,994.62"/>
<path stroke-width="5" d="M216.762,9.15088C217.664,8.91284,218.568,8.67847,219.472,8.44922
M8.44775,219.474C8.67725,218.569,8.91162,217.666,9.14966,216.763
M990.85,216.763C991.088,217.666,991.323,218.569,991.552,219.474
M780.527,8.44922C781.432,8.67847,782.335,8.91284,783.238,9.15088
M783.239,990.851C782.336,991.089,781.432,991.324,780.527,991.553
M991.552,780.529C991.323,781.433,991.088,782.337,990.85,783.239
M9.1499,783.24C8.91187,782.337,8.67749,781.433,8.44775,780.529
M219.472,991.553C218.568,991.324,217.664,991.09,216.762,990.852
M781.536,6.20264C781.292,7.10303,781.042,8.00269,780.789,8.90063
M219.211,8.90186C218.958,8.00391,218.708,7.10425,218.464,6.20386
M6.20264,218.465C7.10278,218.71,8.00244,218.959,8.90063,219.212
M8.90063,780.79C8.00244,781.043,7.10278,781.293,6.20264,781.537
M993.798,781.538C992.898,781.293,991.998,781.044,991.1,780.79
M991.099,219.212C991.997,218.959,992.897,218.71,993.797,218.465
M218.463,993.8C218.708,992.899,218.958,991.999,219.211,991.101
M780.789,991.101C781.042,991.999,781.292,992.898,781.536,993.799"/>
<g stroke="#ffffff">
<path stroke-width="26.2" d="M246.998,26.8608C261.618,24.4143,276.416,23.1846,291.24,23.1846C439.283,23.1846,559.296,143.198,559.296,291.241C559.296,439.285,439.283,559.298,291.24,559.298C143.197,559.298,23.1833,439.285,23.1833,291.241C23.1833,276.418,24.4131,261.619,26.8596,246.999
M973.14,246.999C975.587,261.619,976.816,276.418,976.816,291.241C976.816,439.285,856.803,559.298,708.76,559.298C560.716,559.298,440.703,439.285,440.703,291.241C440.703,143.198,560.716,23.1846,708.76,23.1846C723.583,23.1846,738.382,24.4143,753.002,26.8608
M753.002,973.142C738.382,975.588,723.583,976.818,708.76,976.818C560.716,976.818,440.703,856.805,440.703,708.761C440.703,560.718,560.716,440.705,708.76,440.705C856.803,440.705,976.816,560.718,976.816,708.761C976.816,723.585,975.587,738.383,973.14,753.003
M26.8596,753.003C24.4131,738.383,23.1833,723.585,23.1833,708.761C23.1833,560.718,143.197,440.705,291.24,440.705C439.283,440.705,559.296,560.718,559.296,708.761C559.296,856.805,439.283,976.818,291.24,976.818C276.416,976.818,261.618,975.588,246.998,973.142
M751.081,23.5337C711.916,128.285,611.834,197.715,500,197.715C388.166,197.715,288.084,128.285,248.919,23.5337
M23.5325,248.92C128.284,288.085,197.714,388.167,197.714,500.001C197.714,611.835,128.284,711.917,23.5325,751.082
M976.467,751.082C871.716,711.917,802.286,611.835,802.286,500.001C802.286,388.167,871.716,288.085,976.467,248.92
M248.919,976.469C288.084,871.717,388.166,802.288,500,802.288C611.834,802.288,711.916,871.717,751.081,976.469"/>
<path stroke-width="13.1" d="M235.506,22.3499C239.746,21.4712,244.006,20.6926,248.282,20.0156
M20.0142,248.283C20.6914,244.007,21.47,239.747,22.3486,235.508
M977.651,235.508C978.53,239.747,979.308,244.007,979.986,248.283
M751.718,20.0156C755.994,20.6926,760.254,21.4712,764.493,22.3499
M764.494,977.652C760.255,978.531,755.994,979.31,751.718,979.987
M979.986,751.719C979.308,755.995,978.53,760.255,977.651,764.495
M22.3489,764.496C21.47,760.256,20.6914,755.996,20.0142,751.719
M248.282,979.987C244.006,979.31,239.746,978.531,235.506,977.653
M760.734,15.8362C759.375,19.9475,757.919,24.0264,756.367,28.0686
M243.633,28.0686C242.081,24.0266,240.625,19.9482,239.266,15.8374
M15.8359,239.268C19.9468,240.626,24.0251,242.082,28.0671,243.634
M28.0671,756.369C24.0251,757.92,19.9468,759.376,15.8359,760.735
M984.165,760.735C980.054,759.376,975.975,757.92,971.933,756.369
M971.933,243.634C975.975,242.082,980.053,240.626,984.164,239.268
M239.266,984.166C240.625,980.055,242.081,975.976,243.633,971.934
M756.367,971.934C757.919,975.976,759.375,980.054,760.733,984.165"/>
<path stroke-width="1.75" d="M232.87,17.0996C234.002,16.8586,235.137,16.6243,236.272,16.3975
M16.3962,236.273C16.623,235.138,16.8574,234.004,17.0984,232.872
M982.901,232.872C983.142,234.004,983.377,235.138,983.604,236.273
M763.728,16.3975C764.863,16.6243,765.997,16.8586,767.129,17.0996
M767.131,982.902C765.999,983.143,764.864,983.378,763.729,983.605
M983.604,763.729C983.377,764.864,983.142,765.999,982.901,767.131
M17.0986,767.132C16.8577,766,16.6233,764.865,16.3965,763.73
M236.272,983.605C235.137,983.378,234.002,983.144,232.87,982.903
M766.598,16.1785C766.241,17.2795,765.877,18.3787,765.506,19.4751
M234.494,19.4763C234.123,18.3799,233.759,17.2805,233.402,16.1797
M16.1782,233.403C17.2793,233.76,18.3787,234.125,19.4751,234.496
M19.4751,765.507C18.3787,765.878,17.2793,766.242,16.1782,766.599
M983.823,766.6C982.722,766.243,981.622,765.878,980.526,765.507
M980.525,234.496C981.621,234.125,982.72,233.76,983.822,233.403
M233.401,983.824C233.759,982.723,234.123,981.624,234.494,980.527
M765.506,980.526C765.876,981.623,766.241,982.722,766.598,983.823"/></g>
<path stroke-width="52.4" d="M485.971,197.347C468.827,196.449,451.809,193.906,435.151,189.752
M530.08,169.546C537.874,184.842,544.18,200.852,548.912,217.355
M483.949,145.247C493.299,130.849,504.01,117.383,515.936,105.033
M197.346,514.03C196.448,531.174,193.904,548.192,189.751,564.85
M169.545,469.921C184.841,462.127,200.851,455.821,217.354,451.089
M145.246,516.052C130.848,506.702,117.381,495.99,105.032,484.065
M802.654,485.972C803.552,468.828,806.095,451.81,810.249,435.152
M830.455,530.081C815.159,537.875,799.149,544.182,782.646,548.914
M854.754,483.95C869.152,493.3,882.618,504.012,894.968,515.938
M514.029,802.655C531.173,803.553,548.191,806.097,564.849,810.25
M469.92,830.456C462.126,815.16,455.819,799.15,451.087,782.647
M516.051,854.755C506.701,869.153,495.989,882.62,484.064,894.969
M516.588,478.122C503.311,464.469,491.527,449.44,481.435,433.29
M478.12,483.413C464.467,496.69,449.438,508.474,433.288,518.566
M521.88,516.589C535.532,503.313,550.562,491.528,566.711,481.436
M483.412,521.881C496.688,535.534,508.473,550.563,518.565,566.713"/>
<path stroke-width="26.2" stroke="#ffffff" d="M490.645,197.552C470.362,196.843,450.225,193.834,430.622,188.581
M527.92,165.396C537.448,183.316,544.91,202.26,550.163,221.863
M481.435,149.193C492.19,131.982,504.865,116.047,519.215,101.697
M197.55,509.356C196.842,529.639,193.833,549.776,188.58,569.379
M165.395,472.081C183.314,462.553,202.258,455.091,221.862,449.838
M149.192,518.566C131.98,507.812,116.046,495.137,101.695,480.786
M802.449,490.646C803.158,470.364,806.167,450.227,811.42,430.623
M834.605,527.921C816.685,537.449,797.741,544.911,778.138,550.164
M850.808,481.436C868.019,492.191,883.954,504.866,898.304,519.217
M509.355,802.451C529.637,803.159,549.774,806.169,569.378,811.421
M472.08,834.606C462.552,816.687,455.09,797.743,449.837,778.139
M518.565,850.81C507.81,868.021,495.135,883.955,480.784,898.306
M519.879,481.447C504.145,465.823,490.411,448.307,478.99,429.301
M481.446,480.122C465.822,495.856,448.305,509.591,429.299,521.01
M518.554,519.88C534.178,504.146,551.694,490.412,570.7,478.992
M480.121,518.555C495.854,534.179,509.589,551.696,521.009,570.702"/></g></svg>